<?xml version="1.0" standalone="no"?>
<!DOCTYPE svg PUBLIC "-//W3C//DTD SVG 20010904//EN"
 "http://www.w3.org/TR/2001/REC-SVG-20010904/DTD/svg10.dtd">
<svg version="1.0" xmlns="http://www.w3.org/2000/svg"
 width="707.000000pt" height="707.000000pt" viewBox="0 0 707.000000 707.000000"
 preserveAspectRatio="xMidYMid meet">
<metadata>
Created by potrace 1.14, written by Peter Selinger 2001-2017
</metadata>
<g transform="translate(0.000000,707.000000) scale(0.100000,-0.100000)"
fill="#000000" stroke="none">
<path d="M1080 3535 l0 -1405 325 0 324 0 0 1405 0 1405 -324 0 -325 0 0
-1405z"/>
<path d="M2138 4928 c-2 -7 -3 -638 -3 -1403 l1 -1390 322 -3 322 -2 0 1405 0
1405 -319 0 c-246 0 -320 -3 -323 -12z"/>
<path d="M2998 4933 c-2 -5 -4 -150 -3 -323 l1 -315 324 -5 325 -5 0 -748 c0
-550 -3 -750 -12 -755 -6 -4 -145 -6 -310 -6 -164 1 -305 0 -313 -2 -13 -3
-15 -47 -15 -321 l0 -318 647 -3 647 -2 0 1080 0 1080 -322 2 -322 3 0 320 0
320 -322 3 c-177 1 -323 -1 -325 -5z"/>
<path d="M4691 4290 l0 -650 540 0 539 0 1 23 c3 128 0 400 -5 405 -4 3 -100
7 -214 7 l-207 0 -3 433 -2 432 -325 0 -324 0 0 -650z"/>
<path d="M6418 4933 c-2 -5 -4 -199 -3 -433 l1 -426 -213 1 -213 0 0 -70 c-1
-85 -1 -335 0 -353 0 -10 111 -12 537 -10 l537 3 0 645 0 645 -321 3 c-177 1
-323 -1 -325 -5z"/>
<path d="M4700 3420 c-5 -3 -9 -294 -9 -648 l0 -642 324 0 325 0 0 430 0 430
216 2 216 3 0 208 c0 115 -3 212 -6 215 -7 7 -1055 9 -1066 2z"/>
<path d="M5990 3405 c-1 -34 -1 -348 -1 -382 l1 -33 213 -2 212 -3 0 -425 0
-425 325 -3 325 -2 0 645 c0 638 0 645 -20 646 -11 1 -253 2 -538 2 -511 2
-517 2 -517 -18z"/>
<path d="M5 2673 l0 -538 427 -3 c236 -1 429 1 429 5 1 5 2 149 3 321 1 202
-2 313 -9 314 -5 1 -102 2 -215 4 -113 1 -213 2 -222 3 -17 1 -18 18 -18 216
l0 215 -198 0 -197 0 0 -537z"/>
</g>
</svg>
