<svg xmlns="http://www.w3.org/2000/svg" width="707" height="281" viewBox="0 0 707 281" version="1.1"><path d="M 108 140.500 L 108 281 140.500 281 L 173 281 173 140.500 L 173 0 140.500 0 L 108 0 108 140.500 M 213 140.500 L 213 281 245.500 281 L 278 281 278 140.500 L 278 0 245.500 0 L 213 0 213 140.500 M 299 32.500 L 299 65 331.500 65 L 364 65 364 140.500 L 364 216 331.500 216 L 299 216 299 248.500 L 299 281 364 281 L 429 281 429 173 L 429 65 397 65 L 365 65 365 32.500 L 365 0 332 0 L 299 0 299 32.500 M 469 65 L 469 130 523.520 130 L 578.039 130 577.770 108.250 L 577.500 86.500 555.750 86.230 L 534 85.961 534 42.980 L 534 0 501.500 0 L 469 0 469 65 M 641 42.980 L 641 85.960 619.750 86.230 L 598.500 86.500 598.230 108.250 L 597.961 130 652.480 130 L 707 130 707 65 L 707 0 674 0 L 641 0 641 42.980 M 469 215.991 L 469 281 501.500 281 L 534 281 534 238 L 534 195 556.020 195 L 578.039 195 577.770 173.250 L 577.500 151.500 523.250 151.241 L 469 150.983 469 215.991 M 598.667 151.667 L 598 152.333 598 173.667 L 598 195 619.500 195 L 641 195 641 238.013 L 641 281.027 674.250 280.763 L 707.500 280.500 707.812 237 L 708.124 193.500 707.452 172.250 L 706.779 151 653.056 151 L 599.333 151 598.667 151.667 M 1 227 L 1 281 44 281 L 87 281 87 248.500 L 87 216 63.500 216 L 40 216 40 194.500 L 40 173 20.500 173 L 1 173 1 227" stroke="none" fill="#fffcfc" fill-rule="evenodd"/><path d="" stroke="none" fill="#fcfcfc" fill-rule="evenodd"/></svg>